<svg xmlns="http://www.w3.org/2000/svg" viewBox="0 0 540 900"><defs><linearGradient id="red" x1="0" y1="0" x2="1" y2=".5"><stop stop-color="#260904"/><stop offset=".55" stop-color="#521b12"/><stop offset="1" stop-color="#1c0704"/></linearGradient><linearGradient id="stone"><stop stop-color="#d3bea0"/><stop offset=".22" stop-color="#eee1c5"/><stop offset=".53" stop-color="#a08f73"/><stop offset="1" stop-color="#655943"/></linearGradient><linearGradient id="floor" x1="0" y1="0" x2=".7" y2="1"><stop stop-color="#b9a489"/><stop offset=".4" stop-color="#8d7c63"/><stop offset="1" stop-color="#211b14"/></linearGradient><linearGradient id="light"><stop stop-color="#fff5d3" stop-opacity=".75"/><stop offset="1" stop-color="#fff5d3" stop-opacity="0"/></linearGradient><filter id="stonegrain"><feTurbulence type="fractalNoise" baseFrequency=".09" numOctaves="4" seed="8"/><feColorMatrix type="saturate" values="0"/><feBlend in="SourceGraphic" mode="multiply"/></filter><filter id="soft"><feGaussianBlur stdDeviation="9"/></filter><clipPath id="cut"><path d="M0 900V280A280 280 0 0 1 280 0h260v900Z"/></clipPath></defs><g clip-path="url(#cut)"><path fill="url(#red)" d="M0 0h540v900H0z"/><path fill="#c0ad8a" d="M84 900V340A300 300 0 0 1 384 40h180v860Z"/><path fill="url(#stone)" d="M122 900V370A258 258 0 0 1 380 112h170v788Z"/><path fill="#2f2b23" d="M207 900V397A230 230 0 0 1 437 167h110v733Z"/><path fill="#8d7e63" d="M122 900h85V397q1-113 78-176-163 63-163 149Z" opacity=".7"/><path fill="#726951" d="M324 900V408q0-140 223-213v705Z"/><path fill="url(#floor)" d="m0 725 207-59 333 81v153H0Z"/><path fill="url(#light)" d="m131 688 76-22 333 157v77H417Z"/><path fill="#17120d" opacity=".4" d="m0 731 153-42 270 211H182Z"/><path d="m2 754 536 46M1 812l535 54M102 697l276 203M238 675l302 144" stroke="#54442e" stroke-width="1" opacity=".55"/><path fill="#c0b092" opacity=".16" filter="url(#stonegrain)" d="M84 900V340A300 300 0 0 1 384 40h180v860Z"/><path d="M132 716V370q3-165 130-222" stroke="#fff1c5" stroke-opacity=".55" stroke-width="4" fill="none"/><ellipse cx="260" cy="712" rx="135" ry="16" fill="#ffeece" opacity=".15" filter="url(#soft)"/></g></svg>
