<svg xmlns="http://www.w3.org/2000/svg" viewBox="0 0 500 500"><defs><linearGradient id="w"><stop stop-color="#2a0d08"/><stop offset=".65" stop-color="#7b3725"/><stop offset="1" stop-color="#45170e"/></linearGradient><filter id="s"><feGaussianBlur stdDeviation="5"/></filter><filter id="n"><feTurbulence baseFrequency=".2" numOctaves="3"/><feBlend in="SourceGraphic" mode="soft-light"/></filter></defs><path fill="url(#w)" d="M0 0h500v500H0z"/><path fill="#4a3526" d="m0 440 500-86v146H0z"/><g fill="#140b08" opacity=".58" filter="url(#s)" transform="rotate(22 250 250)"><path d="M220 530Q172 245 350-20" fill="none" stroke="#150b08" stroke-width="12"/><path d="M231 351Q48 326 99 199q93 14 132 152Zm7-62Q340 190 420 232q-49 109-182 57Zm26-61Q78 157 169 71q106 52 95 157Zm40-79Q414 31 480 99q-70 101-176 50Zm15-71Q204 65 252-32q89-9 67 110Z"/></g><path opacity=".14" fill="#bfa381" filter="url(#n)" d="M0 0h500v500H0z"/><path d="m0 441 500-87M102 500l164-107m50 107 114-135" stroke="#c1a488" opacity=".25"/></svg>
