<svg xmlns="http://www.w3.org/2000/svg" viewBox="0 0 500 500"><defs><linearGradient id="wall"><stop stop-color="#682717"/><stop offset=".6" stop-color="#260b07"/><stop offset="1" stop-color="#130906"/></linearGradient><linearGradient id="bowl"><stop stop-color="#c2b093"/><stop offset=".45" stop-color="#887861"/><stop offset="1" stop-color="#342b22"/></linearGradient><linearGradient id="plinth"><stop stop-color="#7c7060"/><stop offset=".4" stop-color="#c0b09a"/><stop offset="1" stop-color="#3b3128"/></linearGradient><filter id="g"><feTurbulence baseFrequency=".026" numOctaves="4" seed="4"/><feBlend in="SourceGraphic" mode="multiply"/></filter></defs><path fill="url(#wall)" d="M0 0h500v500H0z"/><path d="m102 500 4-130 301-24 93 64v90Z" fill="url(#plinth)"/><path d="m106 370 301-24 93 64-294 33Z" fill="#9a8b73"/><path d="m206 443 294-33v90H206Z" fill="#5e5143"/><path d="M147 250q18 129 143 142t157-148Z" fill="url(#bowl)" stroke="#baa78b" stroke-width="2"/><ellipse cx="297" cy="249" rx="150" ry="32" fill="#c5b494"/><ellipse cx="297" cy="247" rx="135" ry="22" fill="#463c2e"/><path d="M167 269q28 94 120 110" fill="none" stroke="#e6d5b3" stroke-opacity=".35" stroke-width="3"/><path d="M166 285h260l-53 96-126-3Z" fill="#baaa90" filter="url(#g)" opacity=".15"/><path d="m112 389 110 27 76-40 69 39 71-29M112 456l79 19m72-33 109 58m-53-81 116 51" stroke="#ece0c5" stroke-opacity=".2" fill="none"/></svg>
