<svg xmlns="http://www.w3.org/2000/svg" width="384" height="288" viewBox="0 0 384 288">
  <defs>
    <style>
      .outline{stroke:#2d1c13;stroke-width:5;stroke-linecap:round;stroke-linejoin:round}
      .fur{fill:#b77734}.fur2{fill:#d7a65f}.dark{fill:#3f2a20}.cream{fill:#f1d7a6}
      .eye{fill:#a7e26a;stroke:#2d1c13;stroke-width:3}.nose{fill:#d27671}
      .line{stroke:#2d1c13;stroke-width:3;stroke-linecap:round;fill:none}
    </style>
    <g id="cat-idle-0">
      <ellipse class="outline fur" cx="50" cy="58" rx="28" ry="22"/>
      <path class="outline fur" d="M29 41 L38 16 L48 38 Z M58 38 L72 16 L75 43 Z"/>
      <ellipse class="outline fur2" cx="50" cy="43" rx="25" ry="22"/>
      <circle class="eye" cx="41" cy="42" r="5"/><circle class="eye" cx="59" cy="42" r="5"/>
      <path class="nose" d="M48 50 L54 50 L51 55 Z"/><path class="line" d="M51 55 Q46 60 39 59 M51 55 Q57 60 64 58"/>
      <path class="dark" d="M39 24 l4 12 l5-13 l5 13 l4-12 l2 13 l8-7 l-3 11 h-28 l-3-11z"/>
      <path class="outline fur" d="M74 60 Q93 55 86 34"/>
      <path class="outline cream" d="M31 78 h13 M55 78 h13"/>
    </g>
    <g id="cat-run-0">
      <use href="#cat-idle-0"/>
      <path class="outline cream" d="M30 79 Q42 72 52 80 M55 80 Q67 74 78 80"/>
    </g>
    <g id="cat-run-1">
      <use href="#cat-idle-0"/>
      <path class="outline cream" d="M28 80 Q43 83 54 78 M56 79 Q69 70 82 72"/>
    </g>
    <g id="cat-jump">
      <ellipse class="outline fur" cx="50" cy="60" rx="27" ry="20"/>
      <path class="outline fur" d="M31 43 L39 18 L49 40 Z M58 39 L72 18 L75 43 Z"/>
      <ellipse class="outline fur2" cx="51" cy="44" rx="24" ry="21"/>
      <circle class="eye" cx="42" cy="43" r="5"/><circle class="eye" cx="60" cy="43" r="5"/>
      <path class="nose" d="M49 51 L54 51 L52 56 Z"/>
      <path class="dark" d="M40 24 l4 12 l5-13 l5 13 l4-12 l2 13 l8-7 l-3 11 h-28 l-3-11z"/>
      <path class="outline fur" d="M73 61 Q91 45 83 30"/>
      <path class="outline cream" d="M28 76 L13 86 M40 79 L30 91 M62 79 L76 91 M70 73 L88 82"/>
    </g>
    <g id="cat-fall">
      <use href="#cat-jump"/>
      <path class="line" d="M41 58 Q51 63 61 58"/>
    </g>
    <g id="cat-land">
      <ellipse class="outline fur" cx="50" cy="63" rx="31" ry="19"/>
      <path class="outline fur" d="M29 49 L38 24 L47 48 Z M58 48 L72 24 L74 50 Z"/>
      <ellipse class="outline fur2" cx="51" cy="50" rx="24" ry="19"/>
      <circle class="eye" cx="42" cy="50" r="4"/><circle class="eye" cx="60" cy="50" r="4"/>
      <path class="nose" d="M49 56 L54 56 L52 60 Z"/>
      <path class="outline fur" d="M76 64 Q92 65 90 46"/>
      <path class="outline cream" d="M25 80 H48 M53 80 H78"/>
    </g>
    <g id="cat-hit">
      <ellipse class="outline fur" cx="51" cy="62" rx="30" ry="20"/>
      <path class="outline fur" d="M30 47 L38 25 L47 47 Z M58 47 L72 25 L74 49 Z"/>
      <ellipse class="outline fur2" cx="51" cy="50" rx="24" ry="19"/>
      <path class="line" d="M38 47 l8 8 M46 47 l-8 8 M58 47 l8 8 M66 47 l-8 8"/>
      <path class="nose" d="M49 57 L54 57 L52 61 Z"/>
      <path class="outline fur" d="M77 65 Q94 78 83 87"/>
      <path class="outline cream" d="M23 83 H47 M55 83 H80"/>
      <text x="70" y="23" font-family="monospace" font-size="15" fill="#2d1c13">!</text>
    </g>
  </defs>
  <rect width="384" height="288" fill="none"/>
  <g transform="translate(0 0)"><use href="#cat-idle-0"/></g>
  <g transform="translate(96 0)"><use href="#cat-idle-0"/><path class="line" d="M72 61 Q91 70 87 42"/></g>
  <g transform="translate(192 0)"><use href="#cat-run-0"/></g>
  <g transform="translate(288 0)"><use href="#cat-run-1"/></g>
  <g transform="translate(0 96)"><use href="#cat-run-0"/><path class="line" d="M74 61 Q91 49 84 35"/></g>
  <g transform="translate(96 96)"><use href="#cat-run-1"/><path class="line" d="M75 61 Q94 62 88 42"/></g>
  <g transform="translate(192 96)"><use href="#cat-jump"/></g>
  <g transform="translate(288 96)"><use href="#cat-fall"/></g>
  <g transform="translate(0 192)"><use href="#cat-land"/></g>
  <g transform="translate(96 192)"><use href="#cat-land"/><path class="line" d="M24 83 H82"/></g>
  <g transform="translate(192 192)"><use href="#cat-hit"/></g>
  <g transform="translate(288 192)"><use href="#cat-idle-0"/></g>
</svg>
