<svg xmlns="http://www.w3.org/2000/svg" width="480" height="96" viewBox="0 0 480 96">
  <defs>
    <style>
      .o{stroke:#2a2218;stroke-width:4;stroke-linejoin:round;stroke-linecap:round}
      .thin{stroke:#2a2218;stroke-width:3;stroke-linecap:round;fill:none}
    </style>
  </defs>
  <rect width="480" height="96" fill="none"/>
  <g transform="translate(0 0)">
    <path class="o" fill="#bd663d" d="M29 42 h38 l-6 38 h-26z"/>
    <path class="o" fill="#e08b54" d="M25 36 h46 v10 h-46z"/>
    <path class="thin" d="M48 36 C43 25 36 25 33 19 M50 36 C54 24 63 22 66 15 M49 36 C49 25 50 18 48 12"/>
    <circle fill="#57a64e" cx="32" cy="18" r="8"/><circle fill="#65bd59" cx="65" cy="16" r="9"/><circle fill="#4b9449" cx="48" cy="12" r="8"/>
  </g>
  <g transform="translate(96 0)">
    <rect class="o" x="14" y="34" width="68" height="46" rx="5" fill="#d4a35d"/>
    <path class="thin" d="M25 34 v46 M48 34 v46 M71 34 v46 M15 48 h66 M15 66 h66"/>
    <path class="o" fill="#f0c56f" d="M18 28 h16 l4 8 h-24z M41 25 h16 l4 11 h-24z M64 29 h16 l4 7 h-24z"/>
  </g>
  <g transform="translate(192 0)">
    <circle class="o" cx="48" cy="58" r="24" fill="#9f62c9"/>
    <path class="thin" d="M30 57 C40 42 57 41 66 54 C75 68 56 78 43 69 C32 62 41 49 54 52"/>
    <path class="thin" d="M27 67 C40 80 63 79 73 61"/>
  </g>
  <g transform="translate(288 0)">
    <rect class="o" x="19" y="28" width="58" height="54" rx="4" fill="#a86f3a"/>
    <path class="thin" d="M24 34 h48 M24 76 h48 M29 28 v54 M67 28 v54 M24 78 L73 31 M23 32 L73 80"/>
    <rect x="31" y="39" width="34" height="28" fill="#c98a49" opacity=".35"/>
  </g>
  <g transform="translate(384 0)">
    <ellipse class="o" cx="49" cy="73" rx="36" ry="10" fill="#4da9da"/>
    <ellipse fill="#8bd8ff" cx="40" cy="70" rx="13" ry="3"/>
    <ellipse fill="#d4f4ff" cx="59" cy="75" rx="10" ry="2"/>
  </g>
</svg>
