<svg xmlns="http://www.w3.org/2000/svg" viewBox="0 0 64 64">
  <defs>
    <linearGradient id="leather" x1="0" y1="0" x2="1" y2="1">
      <stop stop-color="#4b2817"/>
      <stop offset="1" stop-color="#1f0e08"/>
    </linearGradient>
    <linearGradient id="paper" x1="0" y1="0" x2="0" y2="1">
      <stop stop-color="#fff1cf"/>
      <stop offset="1" stop-color="#d8bd87"/>
    </linearGradient>
  </defs>
  <rect x="2" y="2" width="60" height="60" rx="15" fill="url(#leather)" stroke="#b77736" stroke-width="3"/>
  <path d="M11 18c8-2 15 0 21 5 6-5 13-7 21-5v30c-8-2-15 0-21 5-6-5-13-7-21-5z" fill="url(#paper)" stroke="#6e431f" stroke-width="2"/>
  <path d="M32 23v30" stroke="#8d632f" stroke-width="2"/>
  <g fill="none" stroke="#a86322" stroke-width="4.5" stroke-linecap="round">
    <path d="M22 30l-3 3a7 7 0 0 0 10 10l4-4"/>
    <path d="M42 36l3-3a7 7 0 0 0-10-10l-4 4"/>
    <path d="M26 39l12-12"/>
  </g>
</svg>
